<svg width="24" height="24" viewBox="0 0 24 24" fill="none" xmlns="http://www.w3.org/2000/svg">
<path fill-rule="evenodd" clip-rule="evenodd" d="M11.4674 3.16593C11.624 3.05787 11.8098 3 12 3C12.1902 3 12.376 3.05787 12.5326 3.16593L21.5963 9.41681C21.7829 9.54609 21.9163 9.73867 21.9717 9.95882C22.0271 10.179 22.0007 10.4117 21.8974 10.6139C21.7942 10.8161 21.6212 10.974 21.4104 11.0582C21.1996 11.1425 20.9654 11.1474 20.7512 11.072V19.2519C20.7512 19.9151 20.4878 20.551 20.0189 21.02C19.55 21.4889 18.914 21.7523 18.2509 21.7523H5.74913C5.08599 21.7523 4.45002 21.4889 3.98112 21.02C3.51221 20.551 3.24878 19.9151 3.24878 19.2519V11.072C3.03464 11.1474 2.80044 11.1425 2.58964 11.0582C2.37885 10.974 2.20578 10.8161 2.10255 10.6139C1.99932 10.4117 1.97295 10.179 2.02833 9.95882C2.0837 9.73867 2.21706 9.54609 2.40366 9.41681L11.4674 3.16593ZM5.12404 9.81937V9.87562V19.2519C5.12404 19.4177 5.1899 19.5767 5.30713 19.6939C5.42435 19.8112 5.58335 19.877 5.74913 19.877H8.24948V14.5638C8.24948 14.3151 8.34826 14.0766 8.5241 13.9008C8.69994 13.7249 8.93843 13.6262 9.18711 13.6262H14.8129C15.0616 13.6262 15.3001 13.7249 15.4759 13.9008C15.6517 14.0766 15.7505 14.3151 15.7505 14.5638V19.877H18.2509C18.4167 19.877 18.5756 19.8112 18.6929 19.6939C18.8101 19.5767 18.876 19.4177 18.876 19.2519V9.87562L18.8772 9.81937L12.0013 5.0762L5.12404 9.81937ZM13.8753 19.877V15.5014H10.1247V19.877H13.8753Z" fill="black" fill-opacity="0.9"/>
</svg>
